# xmcd CD database file
#
# Track frame offsets:
#	150
#	15637
#	30607
#	47107
#	61125
#	78810
#	96304
#	109167
#	123709
#	143952
#	159627
#	171364
#
# Disc length: 2596 seconds
#
# Revision: 0
# Processed by: cddbd v1.5.1PL0 Copyright (c) Steve Scherf et al.
# Submitted via: CDex 1.50
#
DISCID=9f0a220c
DTITLE=K C Williams - Without A Doubt
DYEAR=2005
DGENRE=Country
TTITLE0=Charley's Boots
TTITLE1=Basic Love
TTITLE2=Where You Are Now
TTITLE3=1-800 I'm A Fool
TTITLE4=So Far
TTITLE5=Without A Doubt
TTITLE6=Beauty's In The Eyes Of The Beholder
TTITLE7=Turn For The Worse
TTITLE8=A Long Long Hard Look At Forever
TTITLE9=Without You
TTITLE10=Honky Tonk Flu
TTITLE11=The Leaving Shelf
EXTD=YEAR: 2005
EXTT0=
EXTT1=
EXTT2=
EXTT3=
EXTT4=
EXTT5=
EXTT6=
EXTT7=
EXTT8=
EXTT9=
EXTT10=
EXTT11=
PLAYORDER=
